<svg width="191" height="326" viewBox="0 0 191 326" fill="none" xmlns="http://www.w3.org/2000/svg">
<path d="M169.361 108.666C155.26 102.684 132.57 90.2769 121.508 88.1669C110.446 86.057 83.4562 77.1589 68.8051 75.286C54.154 73.4132 21.5659 58.4697 28.0421 46.0472C34.5182 33.6246 150.81 75.0489 159.08 89.7948C167.351 104.541 169.361 108.666 169.361 108.666Z" fill="#754C24" stroke="black" stroke-miterlimit="10"/>
<path d="M176.69 159.241C170.135 156.459 159.591 150.691 154.423 149.711C149.255 148.731 136.741 144.598 129.938 143.729C123.135 142.859 107.981 135.913 110.988 130.144C113.995 124.376 168.045 143.618 171.889 150.477C175.733 157.336 176.69 159.241 176.69 159.241Z" fill="#603813" stroke="black" stroke-miterlimit="10"/>
<path d="M142.372 146.565C143.755 144.333 144.68 141.851 145.091 139.264C144.294 142.011 142.536 144.387 140.131 145.965" stroke="black" stroke-miterlimit="10"/>
<path d="M137.857 145.372C139.453 145.262 142.252 142.385 144.565 139.414C141.614 142.195 138.336 144.155 135.696 144.843" stroke="black" stroke-miterlimit="10"/>
<path d="M133.032 144.258C136.127 143.91 139.708 141.998 143.823 139.414C139.09 141.481 134.089 142.882 128.965 143.578" stroke="black" stroke-miterlimit="10"/>
<path d="M125.974 142.828C131.748 142.103 137.434 140.806 142.946 138.956C134.771 140.473 126.931 141.816 122.209 141.492" stroke="black" stroke-miterlimit="10"/>
<path d="M119.378 140.196C125.392 140.836 133.91 140.046 142.946 138.956C133.168 139.343 124.147 139.477 117.081 138.956" stroke="black" stroke-miterlimit="10"/>
<path d="M142.507 138.892C131.421 138.529 120.909 138.102 114.353 137.138" stroke="black" stroke-miterlimit="10"/>
<path d="M142.507 139.034C130.544 138.094 118.509 137.162 112.455 135.447" stroke="black" stroke-miterlimit="10"/>
<path d="M147.787 139.959C148.282 143.294 149.087 147.522 149.239 148.446" stroke="black" stroke-miterlimit="10"/>
<path d="M148.353 140.18C148.744 143.049 150.267 147.008 150.204 148.707" stroke="black" stroke-miterlimit="10"/>
<path d="M148.92 140.18C148.258 143.065 151.232 147.214 151.504 149.047" stroke="black" stroke-miterlimit="10"/>
<path d="M149.43 140.425C149.167 143.412 152.277 147.316 153.234 149.466" stroke="black" stroke-miterlimit="10"/>
<path d="M154.813 149.79C153.689 147.514 150.323 143.8 149.893 140.892C151.121 144.132 154.933 147.941 156.313 150.193" stroke="black" stroke-miterlimit="10"/>
<path d="M158.347 150.912C156.536 148.897 152.437 144.384 150.371 140.639C152.19 142.488 157.597 148.304 160.548 151.765" stroke="black" stroke-miterlimit="10"/>
<path d="M163.315 153.085C159.563 149.48 155.996 145.69 152.628 141.729C157.015 146.115 161.505 150.327 166.123 154.31" stroke="black" stroke-miterlimit="10"/>
<path d="M152.628 141.729C159.16 147.498 165.222 153.117 169.05 155.709" stroke="black" stroke-miterlimit="10"/>
<path d="M153.402 142.63C160.715 148.533 169.177 155.464 172.304 157.257" stroke="black" stroke-miterlimit="10"/>
<path d="M0 278.29C0 278.29 63.8045 238.96 71.8677 187.943C79.931 136.925 85.5777 104.588 91.2483 91.9443C96.919 79.3005 97.3895 63.3772 97.3895 63.3772L117.711 69.9362C117.711 69.9362 111.57 78.8343 108.739 85.8595C105.907 92.8847 94.5582 113.518 83.6875 170.85C72.8168 228.181 58.8756 247.882 58.8756 247.882C58.8756 247.882 79.4286 218.849 99.2797 203.866C119.131 188.883 144.382 157.487 145.602 138.774L147.197 139.24C147.197 139.24 151.009 156.57 137.778 174.129C124.546 191.688 64.9928 252.805 60.2633 262.873C55.5338 272.941 22.9728 318.335 -3.25882 325.155C-5.62756 315.988 0 278.29 0 278.29Z" fill="#C7B299" stroke="black" stroke-miterlimit="10"/>
<path d="M91.9501 80.4226C94.2631 77.1984 95.6189 71.3981 96.7355 65.0129C94.622 71.809 91.8066 77.0088 87.7391 79.3242" stroke="black" stroke-miterlimit="10"/>
<path d="M83.3844 78.2258C86.782 77.9808 91.7906 71.406 96.7673 65.0129C90.3869 70.9872 84.2776 75.6733 78.607 77.1036" stroke="black" stroke-miterlimit="10"/>
<path d="M72.8327 75.9261C79.4843 75.1754 87.8986 70.5762 96.7594 65.0129C85.5378 69.865 74.7309 74.1481 66.6836 74.9383" stroke="black" stroke-miterlimit="10"/>
<path d="M60.2473 73.3578C71.7002 72.0856 83.9426 69.1617 96.7673 65.0287C79.1653 68.3082 62.297 71.1926 52.2159 70.4893" stroke="black" stroke-miterlimit="10"/>
<path d="M46.0508 67.6761C58.9951 69.059 77.3149 67.36 96.7673 65.0129C75.7278 65.8506 56.3074 66.1351 41.1139 65.0129" stroke="black" stroke-miterlimit="10"/>
<path d="M95.7944 64.8865C71.9475 64.0963 49.3288 63.148 35.22 61.1013" stroke="black" stroke-miterlimit="10"/>
<path d="M95.7944 65.1869C69.9775 63.1718 44.1526 61.1488 31.1285 57.4662" stroke="black" stroke-miterlimit="10"/>
<path d="M117.137 70.7106C114.066 76.7638 110.613 83.3544 110.302 85.4485" stroke="black" stroke-miterlimit="10"/>
<path d="M117.137 70.7106C114.744 76.6295 112.511 82.3508 112.352 86.0017" stroke="black" stroke-miterlimit="10"/>
<path d="M117.137 70.7106C115.709 76.9297 114.601 82.7854 115.183 86.7287" stroke="black" stroke-miterlimit="10"/>
<path d="M117.137 70.7106C116.571 77.1431 116.834 82.9988 118.892 87.6296" stroke="black" stroke-miterlimit="10"/>
<path d="M122.265 88.3725C119.691 82.8629 117.963 77.003 117.137 70.9871C119.785 77.965 122.52 84.3422 125.487 89.2022" stroke="black" stroke-miterlimit="10"/>
<path d="M129.906 90.7431C125.998 86.4126 121.611 79.0001 117.145 70.9871C122.541 78.532 128.375 85.7592 134.619 92.6318" stroke="black" stroke-miterlimit="10"/>
<path d="M140.593 95.4292C132.517 87.6691 124.84 79.5115 117.592 70.9871C127.035 80.4226 136.693 89.4866 146.623 98.0607" stroke="black" stroke-miterlimit="10"/>
<path d="M117.592 70.9871C131.645 83.3939 144.708 95.4846 152.931 101.064" stroke="black" stroke-miterlimit="10"/>
<path d="M119.258 72.9312C134.986 85.6303 153.21 100.534 159.934 104.391" stroke="black" stroke-miterlimit="10"/>
<path d="M181.221 161.074C170.238 158.245 156.385 141.974 148.872 140.038C141.359 138.102 117.528 136.917 113.779 134.957C110.031 132.997 107.965 130.713 116.643 125.474C125.32 120.235 138.432 108.879 149.478 109.037C161.082 109.179 169.544 118.749 176.052 132.981C182.289 146.573 192.203 163.864 181.221 161.074Z" fill="#A67C52" stroke="black" stroke-miterlimit="10"/>
<path d="M179.123 112.522C155.492 106.429 125.687 71.4297 109.513 67.2651C93.3381 63.1006 42.0632 60.5402 34.0318 56.3203C26.0004 52.1004 21.5022 47.1931 40.173 35.9559C58.8438 24.7187 87.0214 0.308177 110.828 0.600565C135.808 0.900856 154.016 21.4866 168.021 52.1083C181.412 81.4025 202.755 118.607 179.123 112.522Z" fill="#C69C6D" stroke="black" stroke-miterlimit="10"/>
</svg>
