<svg width="169" height="271" viewBox="0 0 169 271" fill="none" xmlns="http://www.w3.org/2000/svg">
<path d="M42.9333 186.896C48.5033 184.765 56.5333 175.254 62.4633 173.718C68.3933 172.182 72.4633 169.814 76.0933 168.02C80.5233 165.811 87.0933 160.451 85.6033 160.956L59.9033 165.831L42.9333 186.896Z" fill="#534741" stroke="black" stroke-miterlimit="10"/>
<path d="M61.4033 174.065C60.7933 173.213 59.0433 171.3 57.4033 169.507C58.5933 171.627 59.6533 173.678 59.4033 175.046" stroke="black" stroke-miterlimit="10"/>
<path d="M57.5534 176.225C58.3334 174.342 58.0734 172.014 57.4234 169.507C57.3506 172.271 56.7747 175 55.7234 177.562" stroke="black" stroke-miterlimit="10"/>
<path d="M53.1334 179.613C54.7934 177.225 56.1933 173.47 57.5333 169.378C55.0491 174.034 52.2668 178.529 49.2034 182.833" stroke="black" stroke-miterlimit="10"/>
<path d="M68.5034 164.81C70.5834 166.851 72.6334 168.853 74.1334 169.011" stroke="black" stroke-miterlimit="10"/>
<path d="M75.3433 168.219C72.9631 167.471 70.7281 166.329 68.7334 164.84C72.3035 165.555 75.9245 165.992 79.5634 166.148" stroke="black" stroke-miterlimit="10"/>
<path d="M68.7334 165.028C71.7334 166.168 75.1134 167.218 77.5734 167.218" stroke="black" stroke-miterlimit="10"/>
<path d="M68.7334 164.81C72.9082 165.101 77.0985 165.101 81.2733 164.81" stroke="black" stroke-miterlimit="10"/>
<path d="M111.733 202.214C99.5633 195.665 70.4834 171.251 68.1334 164.672C65.7834 158.092 54.6733 167.337 54.6733 167.337C54.6733 167.337 69.0433 176.145 83.8633 194.644C98.6833 213.143 127.413 230.641 127.413 230.641L111.733 202.254" fill="#A67C52"/>
<path d="M111.733 202.214C99.5633 195.665 70.4834 171.251 68.1334 164.672C65.7834 158.092 54.6733 167.337 54.6733 167.337C54.6733 167.337 69.0433 176.145 83.8633 194.644C98.6833 213.143 127.413 230.641 127.413 230.641L111.733 202.254" stroke="black" stroke-miterlimit="10"/>
<path d="M59.6732 167.446C54.5132 171.409 49.8132 181.555 45.4932 185.231C41.1732 188.907 34.1532 189.918 34.4932 179.009C34.8332 168.1 33.8832 146.084 32.9132 140.099C31.9432 134.115 32.3932 125.098 37.2132 122.73C42.0332 120.362 54.6632 132.846 66.3832 142.309C77.4432 151.226 78.7832 148.749 84.9432 152.514C88.4832 154.674 88.6732 162.086 81.6832 163.413C74.6932 164.741 64.7932 163.522 59.6732 167.446Z" fill="#998675" stroke="black" stroke-miterlimit="10"/>
<path d="M14.4233 117.597C24.1133 114.496 38.8934 98.4249 49.1134 96.4432C59.3334 94.4616 66.5733 90.7162 72.8933 87.9617C80.6533 84.583 92.5233 75.7944 89.8933 76.5078L45.8134 81.9078L14.4233 117.597Z" fill="#534741" stroke="black" stroke-miterlimit="10"/>
<path d="M64.9434 91.4794C63.5034 91.4794 59.2933 85.5345 55.8633 81.1649C60.3333 85.7029 64.6934 89.9437 67.4834 90.3796" stroke="black" stroke-miterlimit="10"/>
<path d="M69.6733 89.4086C67.0633 88.9924 61.3933 84.9895 55.8933 81.1649C62.5833 84.613 69.5033 88.2889 72.6333 88.1007" stroke="black" stroke-miterlimit="10"/>
<path d="M55.8633 81.1649C63.4833 83.969 70.9934 86.6838 75.2534 86.8423" stroke="black" stroke-miterlimit="10"/>
<path d="M56.8232 81.5216C64.8232 83.4438 72.5132 85.1579 77.5432 85.6038" stroke="black" stroke-miterlimit="10"/>
<path d="M56.6733 81.5911C65.7634 82.8395 74.4334 83.9294 80.2434 83.9987" stroke="black" stroke-miterlimit="10"/>
<path d="M56.8232 81.1649C66.6832 82.0468 75.9632 82.7898 81.9332 82.7997" stroke="black" stroke-miterlimit="10"/>
<path d="M57.0134 81.1848C67.7334 81.6604 78.1533 82.0865 83.8633 81.6802" stroke="black" stroke-miterlimit="10"/>
<path d="M51.7432 95.4823C51.3532 93.8871 48.3532 88.9825 45.7432 84.5833C47.6032 89.1014 49.5732 93.7583 49.6332 96.0669" stroke="black" stroke-miterlimit="10"/>
<path d="M46.5234 97.028C47.5234 94.0556 46.7934 89.4978 45.7834 84.6229C45.7555 89.3314 45.007 94.0084 43.5635 98.4944" stroke="black" stroke-miterlimit="10"/>
<path d="M45.7833 84.6229C44.4924 90.1913 42.5177 95.5819 39.9033 100.674" stroke="black" stroke-miterlimit="10"/>
<path d="M36.8032 102.765C39.5732 98.8611 42.8032 91.5587 45.8032 84.4742C38.3332 94.8086 31.0832 105.044 26.3232 110.553" stroke="black" stroke-miterlimit="10"/>
<path d="M31.8433 106.391C35.3433 102.626 40.8433 93.1142 45.7833 84.5931C35.8633 95.6012 27.8433 106.847 21.8933 113.327" stroke="black" stroke-miterlimit="10"/>
<path d="M113.213 141.397C119.213 141.654 130.373 136.116 136.423 137.067C142.473 138.018 147.193 137.453 151.223 137.235C156.223 136.978 164.393 134.679 162.793 134.54L137.273 128.823L113.213 141.397Z" fill="#534741" stroke="black" stroke-miterlimit="10"/>
<path d="M143.033 130.568C144.513 133.54 145.984 136.592 147.624 137.434" stroke="black" stroke-miterlimit="10"/>
<path d="M143.283 130.478C145.593 133.619 147.843 136.562 149.533 137.344" stroke="black" stroke-miterlimit="10"/>
<path d="M151.223 137.235C148.51 135.196 145.912 133.01 143.443 130.686C147.673 133.599 151.853 136.433 154.513 136.869" stroke="black" stroke-miterlimit="10"/>
<path d="M143.753 130.904C148.753 133.381 155.563 136.234 157.953 136.324" stroke="black" stroke-miterlimit="10"/>
<path d="M136.314 136.651C136.864 135.383 136.423 133.084 135.864 130.706C136.006 131.887 135.852 133.086 135.414 134.194C134.976 135.302 134.268 136.286 133.354 137.057" stroke="black" stroke-miterlimit="10"/>
<path d="M131.253 137.235C133.195 135.22 134.899 132.993 136.333 130.597C133.677 133.499 130.671 136.068 127.383 138.246" stroke="black" stroke-miterlimit="10"/>
<path d="M136.333 130.568C132.013 133.808 127.443 137.266 124.333 139.089" stroke="black" stroke-miterlimit="10"/>
<path d="M136.173 130.568C130.173 134.343 122.543 138.683 119.733 140.09" stroke="black" stroke-miterlimit="10"/>
<path d="M168.313 244.185C156.893 227.232 155.953 211.815 151.783 196.457C147.613 181.1 145.293 133.669 142.203 130.241C141.324 129.248 140.229 128.465 139.002 127.95C137.774 127.436 136.445 127.202 135.113 127.268C135.113 127.268 140.003 139.376 140.673 150.384C141.343 161.392 148.493 225.617 146.913 230.641C145.333 235.664 168.313 244.225 168.313 244.225" fill="#A67C52"/>
<path d="M168.313 244.185C156.893 227.232 155.953 211.815 151.783 196.457C147.613 181.1 145.293 133.669 142.203 130.241C141.324 129.248 140.229 128.465 139.002 127.95C137.774 127.436 136.445 127.202 135.113 127.268C135.113 127.268 140.003 139.376 140.673 150.384C141.343 161.392 148.493 225.617 146.913 230.641C145.333 235.664 168.313 244.225 168.313 244.225" stroke="black" stroke-miterlimit="10"/>
<path d="M136.363 130.191C130.053 131.736 121.633 139.217 116.193 140.872C110.753 142.526 103.903 140.664 108.583 130.795C113.263 120.926 121.323 100.377 122.843 94.511C124.363 88.6453 128.423 80.5503 133.843 80.2828C139.263 80.0152 145.673 96.4828 152.673 109.76C159.203 122.323 161.433 120.57 165.553 126.465C167.923 129.854 165.113 136.72 158.153 135.204C151.193 133.688 142.673 128.635 136.363 130.191Z" fill="#998675" stroke="black" stroke-miterlimit="10"/>
<path d="M180.893 249.248C180.893 249.248 140.003 238.092 116.303 193.762C92.6032 149.433 58.5232 82.205 55.3032 81.3232C52.0832 80.4413 45.8232 83.6714 45.8232 83.6714C45.8232 83.6714 76.6432 132.4 78.7132 137.979C80.7832 143.557 108.043 190.235 118.123 217.245C128.203 244.255 180.933 269.758 180.933 269.758L180.893 249.248Z" fill="#C69C6D" stroke="black" stroke-miterlimit="10"/>
<path d="M45.1132 84.7714C35.8932 91.1523 26.6732 108.878 18.8932 114.932C11.1132 120.986 -0.886802 121.868 1.0032 102.269C2.8932 82.6708 4.11318 42.9387 3.23318 32.0396C2.35318 21.1405 4.23318 4.95043 12.6732 1.32401C21.1132 -2.30242 40.9232 21.8341 59.5632 40.4022C77.1432 57.92 79.7232 53.6198 89.6732 61.2095C95.3832 65.5592 94.7832 78.9354 82.7832 80.4712C70.7832 82.007 54.3432 78.3806 45.1132 84.7714Z" fill="#C7B299" stroke="black" stroke-miterlimit="10"/>
</svg>
