<svg width="26" height="26" viewBox="0 0 26 26" fill="none" xmlns="http://www.w3.org/2000/svg">
<path d="M22.3695 0.148193H2.72667C2.01627 0.148193 1.33496 0.430399 0.832631 0.932729C0.330302 1.43506 0.0480957 2.11636 0.0480957 2.82676L0.0480957 22.4696C0.0480957 23.18 0.330302 23.8613 0.832631 24.3637C1.33496 24.866 2.01627 25.1482 2.72667 25.1482H10.3857V16.6488H6.87008V12.6482H10.3857V9.59909C10.3857 6.13089 12.4504 4.21516 15.6128 4.21516C17.1273 4.21516 18.711 4.48525 18.711 4.48525V7.88926H16.9661C15.2468 7.88926 14.7105 8.95623 14.7105 10.0505V12.6482H18.5487L17.9348 16.6488H14.7105V25.1482H22.3695C23.0799 25.1482 23.7612 24.866 24.2636 24.3637C24.7659 23.8613 25.0481 23.18 25.0481 22.4696V2.82676C25.0481 2.11636 24.7659 1.43506 24.2636 0.932729C23.7612 0.430399 23.0799 0.148193 22.3695 0.148193V0.148193Z" fill="#FFF5E7"/>
</svg>
