<svg width="61" height="60" viewBox="0 0 61 60" fill="none" xmlns="http://www.w3.org/2000/svg">
<rect opacity="0.6" x="2.49048" y="1.61987" width="56.5647" height="56.5647" rx="13.5" fill="black" stroke="black" stroke-width="3"/>
<g clip-path="url(#clip0)">
<path d="M46.6872 23.6419L33.1977 13.2819C32.3142 12.6035 30.8296 12.6065 29.8594 13.2855C28.8771 13.9716 28.7638 15.109 29.6368 15.8261L35.2468 20.3916H18.1181C16.7042 20.3922 15.345 21.3389 15.0768 22.512C14.7995 23.7064 15.7592 24.6858 17.2294 24.6904H25.8983L10.3674 36.6111C8.90785 37.728 8.43681 39.5871 9.3561 40.7626C10.2883 41.9592 12.2728 41.9615 13.7475 40.7693L22.1915 33.8592C22.1915 33.8592 22.0676 34.7914 22.0775 35.3513C22.3314 40.078 25.9349 44.4598 30.3968 46.4003C38.0852 49.8057 48.4655 46.6883 51.3844 37.8136C52.7725 33.1582 51.7083 27.6224 46.6871 23.642L46.6872 23.6419ZM32.3872 40.1435C26.315 36.9653 26.3149 28.9762 32.3872 25.7979C38.4595 22.6195 46.091 26.6141 46.091 32.9707C46.091 39.3273 38.4595 43.3219 32.3872 40.1435ZM34.2364 37.2833C30.3633 35.2576 30.3633 30.1657 34.2364 28.14C38.1096 26.1143 42.9773 28.6602 42.9773 32.7117C42.9773 36.7632 38.1096 39.3091 34.2364 37.2833Z" fill="white"/>
</g>
<defs>
<clipPath id="clip0">
<rect width="43.0588" height="43.0588" fill="white" transform="translate(8.88455 8.73169)"/>
</clipPath>
</defs>
</svg>
