<svg width="61" height="61" viewBox="0 0 61 61" fill="none" xmlns="http://www.w3.org/2000/svg">
<rect x="0.329346" y="0.0411377" width="60.2824" height="60.2824" rx="15" fill="black" fill-opacity="0.6"/>
<path d="M38.5553 31.8616V28.7177H41.6993V31.8616H38.5553Z" fill="white"/>
<path fill-rule="evenodd" clip-rule="evenodd" d="M30.6953 8.03348L51.1312 19.9555V40.6241L30.6953 52.5492L10.2594 40.6241V19.9555L30.6953 8.03033V8.03348ZM27.0231 19.2858C24.2448 19.2858 21.5802 20.3895 19.6157 22.3541C17.6511 24.3187 16.5474 26.9832 16.5474 29.7616V30.818C16.5478 32.6031 17.0044 34.3585 17.8738 35.9176C18.7432 37.4767 19.9966 38.7877 21.5151 39.7263C23.0335 40.6649 24.7667 41.1999 26.55 41.2806C28.3333 41.3612 30.1076 40.9848 31.7045 40.187L32.9716 39.5582L31.5631 36.7444L30.2992 37.3732C29.182 37.9321 27.9405 38.1962 26.6925 38.1404C25.4446 38.0846 24.2316 37.7107 23.1688 37.0542C22.106 36.3978 21.2286 35.4805 20.62 34.3896C20.0114 33.2987 19.6917 32.0703 19.6914 30.8211V29.7647C19.6915 28.5153 20.0109 27.2867 20.6193 26.1954C21.2277 25.1041 22.1049 24.1864 23.1676 23.5294C24.2303 22.8723 25.4433 22.4978 26.6914 22.4413C27.9396 22.3847 29.1814 22.6481 30.2992 23.2064L31.5631 23.8383L32.9716 21.0276L31.7045 20.3956C30.2504 19.667 28.6465 19.2871 27.02 19.2858H27.0231ZM35.4113 22.4298V25.5738H32.2673V28.7178H35.4113V31.8618H32.2673V35.0058H35.4113V38.1497H38.5553V35.0058H41.6993V38.1497H44.8433V35.0058H47.9873V31.8618H44.8433V28.7178H47.9873V25.5738H44.8433V22.4298H41.6993V25.5738H38.5553V22.4298H35.4113Z" fill="white"/>
</svg>
