<svg width="60" height="61" viewBox="0 0 60 61" fill="none" xmlns="http://www.w3.org/2000/svg">
<rect x="0.376465" y="0.47644" width="59.5647" height="59.5647" rx="15" fill="black" fill-opacity="0.6"/>
<g clip-path="url(#clip0)">
<path d="M49.8022 13.7278L40.9442 9.46633C40.4432 9.22362 39.879 9.14309 39.3301 9.23593C38.7812 9.32878 38.2749 9.5904 37.8816 9.98438L20.9151 25.4654L13.5211 19.8583C13.1881 19.6037 12.7763 19.4741 12.3575 19.4921C11.9388 19.51 11.5396 19.6744 11.2296 19.9565L8.86134 22.1149C8.67623 22.2821 8.52815 22.4863 8.42659 22.7141C8.32504 22.942 8.27225 23.1886 8.27161 23.4381C8.27098 23.6876 8.32252 23.9344 8.42292 24.1628C8.52331 24.3912 8.67036 24.5961 8.85461 24.7643L15.2677 30.6163L8.85461 36.4682C8.67036 36.6365 8.52331 36.8413 8.42292 37.0697C8.32252 37.2981 8.27098 37.545 8.27161 37.7945C8.27225 38.044 8.32504 38.2906 8.42659 38.5184C8.52815 38.7463 8.67623 38.9504 8.86134 39.1177L11.2296 41.276C11.5396 41.5582 11.9388 41.7226 12.3575 41.7405C12.7763 41.7585 13.1881 41.6288 13.5211 41.3743L20.9151 35.7605L37.8897 51.2482C38.2816 51.6421 38.7868 51.9038 39.3346 51.9967C39.8825 52.0896 40.4457 52.009 40.9455 51.7662L49.8116 47.498C50.2682 47.2787 50.6533 46.9346 50.9224 46.5055C51.1915 46.0763 51.3335 45.5798 51.3321 45.0733V16.1499C51.3321 15.1191 50.736 14.1732 49.8049 13.7251L49.8022 13.7278ZM40.5715 40.3947L27.6902 30.6176L40.5715 20.8406V40.3947Z" fill="white"/>
</g>
<defs>
<clipPath id="clip0">
<rect width="43.0588" height="43.0588" fill="white" transform="translate(8.27063 9.0882)"/>
</clipPath>
</defs>
</svg>
