<svg width="60" height="60" viewBox="0 0 60 60" fill="none" xmlns="http://www.w3.org/2000/svg">
<rect y="0.0411377" width="59.5647" height="59.5647" rx="15" fill="black" fill-opacity="0.6"/>
<g clip-path="url(#clip0)">
<path d="M42.1586 42.381L34.4511 29.4647L42.1586 16.5484L45.9303 29.4647L42.1586 42.381ZM25.114 41.1269L15.4298 31.6162H30.8624L38.5699 44.5326L25.114 41.1269ZM25.114 17.6194L38.5699 14.2138L30.8624 27.1301H15.2468C15.2468 27.3131 25.114 17.6194 25.114 17.6194ZM44.8498 7.93524L27.2751 12.4201L24.5839 16.9049H19.3751L6.4588 29.4633L19.3751 42.0217H24.5839L27.0921 46.5065L44.6762 50.9914L49.336 33.9468L46.8278 29.462L49.519 24.9771L44.8498 7.93524Z" fill="white"/>
</g>
<defs>
<clipPath id="clip0">
<rect width="43.0588" height="43.0588" fill="white" transform="translate(6.4588 7.93524)"/>
</clipPath>
</defs>
</svg>
