<svg width="62" height="62" viewBox="0 0 62 62" fill="none" xmlns="http://www.w3.org/2000/svg">
<g clip-path="url(#clip0)">
<rect x="12" y="12" width="40" height="39" fill="white"/>
<path d="M27.3048 27.4982C27.0492 26.706 26.8192 25.9393 26.5637 25.1471C26.3081 24.3549 26.0781 23.6138 25.8737 22.8726C25.6692 22.1571 25.4903 21.4926 25.3114 20.8793H25.2603C25.0303 21.9782 24.7492 23.0771 24.3914 24.176C24.0081 25.4026 23.6248 26.6804 23.2159 27.9582C22.8581 29.2615 22.4748 30.4626 22.0914 31.536H28.5826C28.4292 30.9968 28.2248 30.3604 27.9948 29.6934C27.7648 29.006 27.5348 28.2649 27.3048 27.4982ZM50.867 0.84375H11.2559C5.25033 0.84375 0.394775 5.69931 0.394775 11.7049V49.7826C0.394775 55.7882 5.25033 60.6438 11.2559 60.6438H50.867C56.8726 60.6438 61.7281 55.7882 61.7281 49.7826V11.7049C61.7281 5.69931 56.8726 0.84375 50.867 0.84375ZM37.9614 43.0871H32.6178C32.4414 43.1126 32.2626 42.9849 32.2114 42.806L30.1159 36.7238H20.6092L18.667 42.7293C18.6159 42.9593 18.4114 43.1126 18.1814 43.0896H13.377C13.0959 43.0896 13.0192 42.9338 13.0959 42.6296L21.3248 18.9371C21.4014 18.6815 21.4781 18.4004 21.5803 18.0938C21.6826 17.5571 21.7337 16.9949 21.7337 16.4326C21.7081 16.3049 21.8103 16.1771 21.9381 16.1515H28.557C28.7614 16.1515 28.8637 16.2282 28.8892 16.356L38.217 42.6782C38.2937 42.9568 38.217 43.0871 37.9614 43.0871ZM46.6503 42.7038C46.6503 42.9849 46.5507 43.1126 46.3207 43.1126H41.3092C41.0537 43.1126 40.9259 42.9568 40.9259 42.7038V23.026C40.9259 22.7704 41.0307 22.6682 41.2607 22.6682H46.3207C46.5507 22.6682 46.6503 22.796 46.6503 23.026V42.7038ZM46.1162 19.6271C45.8144 19.9336 45.4505 20.172 45.049 20.3263C44.6474 20.4805 44.2175 20.5471 43.7881 20.5215C42.9448 20.5471 42.127 20.2149 41.5111 19.6271C40.9256 18.9869 40.6138 18.1431 40.6422 17.276C40.6167 16.4071 40.9489 15.5893 41.5597 15.0015C42.1781 14.4137 42.9959 14.1071 43.8392 14.1071C44.8384 14.1071 45.6 14.4137 46.1648 15.0015C46.727 15.6149 47.0337 16.4326 47.0081 17.276C47.0337 18.1449 46.727 18.9882 46.1162 19.6271Z" fill="black" fill-opacity="0.6"/>
</g>
<defs>
<clipPath id="clip0">
<rect width="61.3333" height="61.3333" fill="white" transform="translate(0.394775 0.0771484)"/>
</clipPath>
</defs>
</svg>
