<svg width="62" height="62" viewBox="0 0 62 62" fill="none" xmlns="http://www.w3.org/2000/svg">
<g clip-path="url(#clip0)">
<rect x="4" y="13" width="51" height="40" fill="white"/>
<path d="M21.9625 27.8973C21.7099 27.1144 21.4826 26.3567 21.2301 25.5738C20.9775 24.7909 20.7502 24.0585 20.5482 23.3261C20.3461 22.619 20.1694 21.9624 19.9926 21.3562H19.9421C19.7148 22.4422 19.437 23.5282 19.0834 24.6141C18.7046 25.8264 18.3258 27.0891 17.9217 28.3518C17.5934 29.6398 17.1893 30.8268 16.8105 31.8875H23.2252C23.0737 31.3572 22.8716 30.7258 22.6443 30.0692C22.4171 29.3873 22.1898 28.6549 21.9625 27.8973ZM43.6312 27.1649C42.2421 27.0891 40.9289 27.8215 40.2723 29.0842C39.9692 29.6651 39.7924 30.2712 39.7167 30.9026H45.0429C45.6995 30.9026 46.1794 30.9026 46.4824 30.8773C46.6845 30.8521 46.8865 30.8016 47.0633 30.6753V30.4227C47.0535 29.983 46.9568 29.5495 46.7787 29.1473C46.6005 28.745 46.3446 28.382 46.0256 28.0792C45.7065 27.7764 45.3307 27.5397 44.9197 27.3827C44.5088 27.2258 44.0709 27.1518 43.6312 27.1649ZM50.2732 1.5564H11.1281C5.19321 1.5564 0.394775 6.35483 0.394775 12.2897V49.9195C0.394775 55.8544 5.19321 60.6529 11.1281 60.6529H50.2732C56.2081 60.6529 61.0065 55.8544 61.0065 49.9195V12.2897C61.0065 6.35483 56.2081 1.5564 50.2732 1.5564ZM32.4938 43.2548H27.2155C27.0387 43.28 26.8619 43.1512 26.8114 42.977L24.7405 36.9158H15.3457L13.4263 42.8759C13.3758 43.1032 13.1738 43.2548 12.9465 43.2295H8.19854C7.92074 43.2295 7.84497 43.078 7.92074 42.7749L16.0528 19.4621C16.1286 19.2096 16.2043 18.9823 16.3054 18.6792C16.4064 18.1489 16.4569 17.5933 16.4569 17.0376C16.4316 16.9114 16.5327 16.7851 16.6589 16.7598H23.2C23.3767 16.7598 23.503 16.8356 23.5283 16.9619L32.7463 42.8482C32.8221 43.126 32.7488 43.2548 32.4938 43.2548ZM52.3214 33.1755C52.2683 33.6528 52.2431 34.0089 52.2178 34.2362C52.1926 34.413 52.0436 34.5645 51.8643 34.5645C51.7127 34.5645 51.4349 34.5898 51.0308 34.6176C50.6293 34.6681 50.1469 34.6908 49.5686 34.6908C48.9877 34.6908 48.3791 34.5898 47.725 34.5898H39.7192C39.8177 35.3727 40.0728 36.1556 40.5021 36.8375C40.949 37.5172 41.5907 38.0462 42.3432 38.3553C43.3534 38.7846 44.4671 39.0119 45.5783 38.9867C46.4622 38.9589 47.3436 38.8857 48.2023 38.7089C48.9738 38.6104 49.7298 38.4153 50.4525 38.128C50.5788 38.0295 50.6546 38.0775 50.6546 38.3301V42.1966C50.6546 42.2951 50.6293 42.3986 50.6015 42.4971C50.5561 42.5673 50.4968 42.6275 50.4273 42.6739C49.6191 43.0275 48.7857 43.28 47.9018 43.4315C46.7123 43.6588 45.5278 43.7599 44.3156 43.7346C42.3937 43.7346 40.7799 43.4315 39.4666 42.8507C38.2311 42.3126 37.14 41.4906 36.282 40.4515C35.4764 39.4665 34.893 38.3553 34.5394 37.1431C34.186 35.9451 34.0082 34.7023 34.0116 33.4533C34.0116 32.0921 34.2136 30.7511 34.6429 29.4378C35.047 28.1751 35.6784 27.0133 36.5371 25.9779C37.3705 24.9677 38.4034 24.1595 39.5904 23.5787C40.7799 22.9978 42.1916 22.7958 43.808 22.7958C45.1546 22.7643 46.4915 23.0317 47.7225 23.5787C48.7579 24.0333 49.6671 24.7151 50.3742 25.5991C51.0309 26.4577 51.5612 27.4174 51.8921 28.4781C52.2178 29.4883 52.3694 30.5238 52.3694 31.5592C52.3694 32.1653 52.3441 32.6957 52.3214 33.1755Z" fill="black" fill-opacity="0.6"/>
</g>
<defs>
<clipPath id="clip0">
<rect width="60.6118" height="60.6118" fill="white" transform="translate(0.394775 0.798828)"/>
</clipPath>
</defs>
</svg>
